<mxfile host="app.diagrams.net" modified="2024-06-29T04:44:22.454Z" agent="Mozilla/5.0 (Windows NT 10.0; Win64; x64) AppleWebKit/537.36 (KHTML, like Gecko) Chrome/126.0.0.0 Safari/537.36 Edg/126.0.0.0" version="24.6.4" etag="Ix-78gyCPDxc1bSc9oxM" type="github">
  <diagram name="PÃ¡gina-1" id="hviX2At09yAYEp6-1_wr">
    <mxGraphModel>
      <root>
        <mxCell id="0" />
        <mxCell id="1" parent="0" />
      </root>
    </mxGraphModel>
  </diagram>
</mxfile>
